<svg version="1" xmlns="http://www.w3.org/2000/svg" width="682.667" height="682.667" viewBox="0 0 512.000000 512.000000"><path d="M320 54c-5.9 1.8-5.5 2.5 2 3.5 2.9.3 6 0 8.5-.9l4-1.5-5-.1-5-.2 5-1.3 5-1.3H330c-2.5 0-7 .8-10 1.8zM360.7 53.4c-.3.8-4.3 2.7-8.9 4.2l-8.3 2.8 5 .7c9.2 1.3 10.3 1.1 14.3-2.6 2.7-2.5 3.2-3.5 2-3.5-1.1 0-1.5-.5-1.2-1.5.4-.9 0-1.5-.9-1.5-.8 0-1.7.6-2 1.4zM374.9 54.7c-.6 1.6-2.1 4.2-3.5 6l-2.4 3.2 4.7.6c2.7.3 6.2.9 7.8 1.2l3 .5-2.2-1.7c-1.7-1.2-2.3-2.6-2.3-5.6 0-3.2-.3-3.9-2-3.9-1.3 0-1.8-.5-1.4-1.5.4-.8.3-1.5 0-1.5-.4 0-1.1 1.2-1.7 2.7z"/><path d="M411.5 53.8c6.4 2.2 13.5 7.1 16.4 11.4 1.3 1.8 4 4.5 6.1 6 2.1 1.5 5.1 4.8 6.7 7.5l2.8 4.8.3 169.9c.1 111.8-.1 171.1-.8 173.5-1.5 5.6-6.3 11.6-11.7 14.8-4.3 2.5-5.9 2.8-16 3.2-6.2.2-11.3 0-11.3-.3 0-.4.9-2.4 2-4.6 3-5.9 2.4-6.2-1-.3s-9.5 11.3-16.6 14.5l-4.9 2.3-131.3.3-131.2.2V54.8l-20.2.4c-21.8.4-23.3.7-32.7 6.9l-3.4 2.3 1.8-3c1.5-2.4 1.1-2.1-2.7 1.5-2.7 2.5-5.8 7-7.5 10.5l-2.8 6.1v354l2.6 5.6c3.7 7.9 9 13.3 16.7 17.1l6.7 3.3h354l6.3-3.4c7.5-4.1 12.5-9.4 16.1-17l2.6-5.6v-355l-2.2-4.8c-7-15.2-19-21.7-39.8-21.7l-10 .1 5 1.7z"/><path d="M399.2 77.1c-.6 4.1-3.3 22.8-5.9 41.6-3.8 27.1-5.1 34.3-6.2 34.3-1.4 0-142.4-19.5-148.8-20.5-4.2-.7-4.6 2-.5 3.6 5.6 2.2 9.8 4.4 12.4 6.5l2.6 2.1-8.1.7c-17 1.3-37.7 8.9-53 19.5-8.7 6-22.7 20.2-28.4 28.6-13.1 19.5-19.3 39.7-19.3 63 0 18 3.5 33.5 10.9 48.5 6.5 13 11 19.3 21.9 30.3 13.7 13.9 31.5 24.2 50.9 29.4 8.9 2.5 11.4 2.7 28.3 2.7s19.4-.2 28.3-2.7c11.2-3 25.5-9.5 34.8-15.7 8.7-5.9 22.9-19.9 28.8-28.4 13-19 18.8-36.2 19.8-58.7.9-22.1-2.3-37.4-11.8-56-5.8-11.3-10.6-18-19.6-27.2-7.5-7.7-15.2-13.9-23.9-19.1-4.8-3-5.3-3.5-2.9-3.1 1.7.3 17.6 2.6 35.5 5.1 34.4 4.8 39.1 4.9 46.1 1.3 7.3-3.7 9.5-10 13.9-41.2 3.2-22.5 3.3-28.2.3-34.1-1.3-2.5-2.1-6.9-2.2-12.7-.1-.8-.7-2.4-1.5-3.4-1.2-1.6-1.4-1-2.4 5.6zm-128 84.5c2.7.3 5 .9 5.3 1.3.2.5-.9 3.9-2.5 7.7-4 9.6-7 21.4-7.7 30.9-.6 7-.9 8.2-3.4 10.2-1.5 1.3-2.9 3.4-3.1 4.6-.7 4.9-29.6 11.6-43.5 10.1-4-.4-6.3-1.1-6.3-1.9 0-.7-1.1-2.8-2.4-4.7l-2.4-3.5 3.2-5.9c5.9-11 11.9-18.9 22.5-29.5 5.8-5.8 14-12.9 18.1-15.7 8.2-5.6 6.7-5.4 22.2-3.6zm-37.3 4.1c-11.6 9.6-24 24.4-31.5 37.5-2.1 3.7-3.9 6.6-4 6.5-.5-.8 1.9-18.3 3.7-25.8l2.1-9 7.6-3.8c8.2-4.1 20.3-8.3 25.6-9 .5 0-1 1.6-3.5 3.6zm61.1 8.6c5.8 6.8 6.7 8.4 5.8 10-.5 1.1-.8 3.2-.6 4.8.4 2.7-.3 3.5-8.1 9.3-9.7 7.2-16.3 11.6-17.1 11.6-1.2 0 1.1-17.3 3.5-25.3 3.2-11.2 7.2-20 8.5-19.2.6.4 4.2 4.3 8 8.8zm16.5 3.7c1.2 1.9-1.2 1-3.1-1.1-1.9-2.2-1.9-2.2.3-1 1.2.6 2.5 1.6 2.8 2.1zm-120 15.5c-.8 5-1.5 11.7-1.6 15 0 5.5-.3 6.2-3.3 8.7l-3.3 2.7-6.7-2.5c-3.6-1.4-6.6-3.1-6.6-3.8 0-2.7 8-14.5 14.9-21.8 4-4.3 7.5-7.7 7.7-7.5.2.1-.3 4.3-1.1 9.2zM326 193c-3.7 2.3-8.6.1-7.5-3.4.3-.9.7-2.4 1-3.3.5-1.4 1.2-1 4.3 2 3.1 3.1 3.4 3.9 2.2 4.7zm-14.7 6.7c-.5 1.1-5.3 5.6-10.9 10.1-5.5 4.4-12.5 11-15.5 14.6-3 3.6-6 6.5-6.7 6.5-2.1.1-2.6-3-.8-5.9.9-1.6 1.6-3.7 1.6-4.9 0-1.4 2.3-3.5 7.8-7.2 4.2-2.8 10.5-7.3 13.8-9.9 5-4 9.7-6.2 11.2-5.4.1 0-.1 1-.5 2.1zm25 3.1c4.3 6.6 9.4 17.4 12 25.8 3 9.5 5 25.8 4.1 33.1-.6 4.8-.9 5.3-4 6.3-1.8.6-4.4 1-5.6.8-2-.3-2.3-1-2.5-5.3-.9-18.4-4.1-34.1-9.7-48-3.7-9.1-3.8-13.6-.3-15.3 3.2-1.5 3.2-1.5 6 2.6zM323 220.1c4.6 11.9 7 23.2 7.7 35.4l.6 11.1-3.3 3.2c-3.2 3.2-3.6 3.4-14.9 4.3l-11.6.9-2.7-3.2c-1.5-1.8-5.5-7.3-8.8-12.1l-6-8.8 2-3.7c2.3-4.1 2.5-6.4.9-9.3-.9-1.7 0-3.1 6.8-10.1 4.3-4.4 10.6-10.2 14.1-12.9 5.7-4.3 6.6-4.7 9.2-3.7 2.4.8 3.4 2.3 6 8.9zm-140.6 11c.3 1.4 1.6 3.9 3 5.6 2 2.4 2.3 3.5 1.7 6.3-.5 2.6-1.3 3.6-2.9 3.8-2.5.4-9.5-4.2-16.5-10.7-4.3-4-4.7-4.8-4.1-7.5 1.4-6.6 1.5-6.7 10.3-3.2 6.6 2.6 8 3.5 8.5 5.7zm85.5.6c.6 2.2.6 4.4-.1 6.4-.6 1.6-.8 4.4-.4 6.1.5 2.3-.3 5.4-3.1 12-2.1 4.8-4.3 8.8-5 8.8-.6 0-2.6 1.2-4.3 2.7l-3.2 2.6-10.4-2.2c-14.2-3-27.8-7-28.3-8.4-.8-2.2-5-5.7-6.9-5.7-1.6 0-2.3-1.3-3.6-6.7-1.2-4.7-1.4-6.9-.6-7.1.6-.2 2.3-1.4 3.8-2.7 2.5-2.1 3.9-2.3 18.2-2.8 15.7-.5 23.5-2 34.4-6.6 5.2-2.3 8.2-1.1 9.5 3.6zm-101.6 14.6c2.8 2.3 6.9 5.3 9 6.5 2 1.3 3.7 3 3.7 3.8 0 .8 1 2.5 2.3 3.7 2.1 2.2 2.2 2.9 2.3 24.2 0 18.4.4 23.4 2.1 30.8l2 8.8-2.4-2.3c-4.2-3.9-11.9-15-15.6-22.3-7.5-15.1-11.5-34.5-10.1-49.7.4-4.3.8-7.8 1-7.8.3 0 2.8 1.9 5.7 4.3zm117.3 27.5c-6.6.4-11.6-.5-11.6-2.2 0-.8-.7-1.9-1.5-2.6-1.7-1.4-1.5-2.5 2.1-10.7l2.5-5.5 6.8 10.3 6.9 10.4-5.2.3zm-87.6-9c0 .8 1.7 3.1 3.8 5.1 2.1 2 5.1 5.8 6.7 8.6 5.9 10.3 24.4 32.6 33.3 40 2.4 2 3.3 3.5 3.2 5.4-.4 5.3.1 7 2.5 9.9 2.2 2.6 2.5 3.9 2.5 10.6v7.6h-2.9c-6.1 0-22.9-5.2-33-10.1-9.6-4.8-10.5-5.5-12.3-9.6-5.8-13.1-9.4-38.2-8.2-57.3.3-6.3.8-11.8 1.1-12.2.7-1.2 3.3.3 3.3 2zm45.1 12.2c5.7 1.1 10.5 2.5 10.7 2.9.1.5.8 1.6 1.6 2.6 1 1.4.8 3.6-1.1 12.9-1.2 6.1-2.3 12.4-2.3 14.1-.1 6.5-1.3 6-11.8-5-10.1-10.6-20.7-23.9-24.9-31.3l-2.2-3.9 9.8 2.8c5.4 1.5 14.5 3.7 20.2 4.9zm106.5 9.8c-1.3 3.7-3.5 9-4.9 11.7l-2.6 5V296c-.1-7.4 0-7.6 3.9-11.8 2.1-2.3 4.4-4.2 4.9-4.2s-.1 3-1.3 6.8zm-45.9 2.1c4.8 5.1 5.2 5.9 4.7 9.1-.4 2.2-2.3 5.3-5.5 8.8-6.8 7.5-13.1 16.5-17 24.4-1.8 3.8-3.7 6.8-4.2 6.8-.4 0-4.1-2.3-8.2-5-6.5-4.4-7.5-5.5-7.5-8 0-1.9-1.1-4.2-3.1-6.5l-3.1-3.5 2.3-13.1c1.2-7.2 2.7-13.5 3.3-14 6.6-5.5 7.5-5.7 20.6-5.1l12.5.5 5.2 5.6zm23.7-6c.6.9-7.5 8.1-9.1 8.1-.5 0-2.6-1.8-4.7-3.9l-3.9-4 5.4-.4c10.7-.7 11.8-.7 12.3.2zm6.2 10.3c-.3 1.3-.6 4.2-.6 6.5 0 2.4-.4 4.3-.8 4.3s-2.3-1.4-4.2-3l-3.5-3 3.9-3.5c4.6-4.1 6.1-4.4 5.2-1.3zm-10.8 15.1c1.2 1.3 1.9 2.6 1.6 3-1.1 1.1.5 5.6 2.8 7.7l2.2 2-3.5 3.6c-9.2 9.7-27.7 21-32.3 19.8-1.5-.3-2.8-.9-3.1-1.3-.7-1.3 5-12.2 10.3-19.6 7.7-10.8 12.9-16.3 16-16.8 1.5-.2 3-.5 3.3-.6.3 0 1.5.9 2.7 2.2zM269.3 342c8.8 5.6 10.2 7.4 6.7 8.5-2.5.8-18.4 2.4-18.9 1.9-.2-.2-.6-3.5-.9-7.5-.4-5.4-.2-7.3.9-8 2-1.3 2.4-1.1 12.2 5.1zM432.5 230.2c-1 1.8-4.8 6.6-8.4 10.7-6.9 7.9-13.1 16.6-13.1 18.4 0 .5 1.4-1 3.2-3.4 1.7-2.4 6-7.6 9.4-11.6 6.1-7 12.1-16 11.2-16.8-.2-.2-1.3 1-2.3 2.7z"/></svg>